<?xml version="1.0" standalone="no"?>
<!DOCTYPE svg PUBLIC "-//W3C//DTD SVG 20010904//EN"
 "http://www.w3.org/TR/2001/REC-SVG-20010904/DTD/svg10.dtd">
<svg version="1.0" xmlns="http://www.w3.org/2000/svg"
 width="906.000000pt" height="906.000000pt" viewBox="0 0 906.000000 906.000000"
 preserveAspectRatio="xMidYMid meet">
<metadata>
Created by potrace 1.14, written by Peter Selinger 2001-2017
</metadata>
<g transform="translate(0.000000,906.000000) scale(0.100000,-0.100000)"
fill="#000000" stroke="none">
<path d="M1180 8720 c-13 -8 -15 -415 -18 -3546 -2 -2622 1 -3540 9 -3550 10
-12 239 -14 1399 -14 1213 0 1393 2 1436 15 27 9 95 20 151 25 57 5 112 14
123 20 11 6 58 15 103 20 45 5 100 19 122 30 21 11 50 20 63 20 13 0 35 9 49
20 14 11 35 20 47 20 11 0 36 9 54 20 18 11 38 20 45 20 6 0 41 16 77 35 36
19 76 39 90 46 14 6 42 19 62 30 20 10 45 19 54 19 17 0 69 31 125 75 30 23
43 32 118 80 30 19 57 38 60 42 3 5 26 21 51 38 84 55 204 162 286 255 17 19
55 58 85 85 60 55 163 169 182 202 20 34 50 77 61 88 16 15 66 90 66 99 0 4
20 32 45 63 25 30 45 58 45 62 0 5 9 18 20 31 11 13 20 31 20 41 0 19 10 42
86 191 24 48 44 96 44 106 0 11 9 31 20 45 11 14 20 33 20 44 0 10 12 41 25
68 14 28 25 57 25 66 0 9 9 36 20 60 11 24 20 65 20 90 0 25 7 68 16 95 8 27
19 98 24 158 6 59 17 131 25 159 22 74 22 540 0 613 -8 29 -19 101 -24 160 -5
60 -14 123 -21 139 -6 17 -15 67 -20 112 -5 46 -16 93 -24 105 -9 12 -16 32
-16 43 0 11 -11 43 -25 70 -13 28 -25 58 -25 68 0 11 -9 30 -20 44 -11 14 -20
35 -20 47 0 11 -6 31 -13 43 -6 13 -27 53 -45 90 -19 38 -42 85 -53 105 -10
20 -19 45 -19 54 0 20 -34 73 -97 152 -24 30 -43 58 -43 62 0 9 -34 62 -57 90
-40 47 -63 79 -63 85 0 14 -108 138 -169 193 -35 31 -78 73 -95 92 -92 103
-199 199 -281 252 -27 18 -53 36 -56 40 -3 5 -30 24 -60 43 -30 19 -61 40 -69
47 -39 35 -157 108 -173 108 -10 0 -35 9 -55 19 -20 11 -48 24 -62 30 -14 6
-52 27 -85 46 -33 19 -68 34 -78 35 -11 0 -31 8 -45 19 -15 10 -43 21 -63 25
-21 4 -42 13 -48 20 -6 7 -29 16 -52 20 -22 3 -56 15 -77 26 -23 13 -56 20
-88 20 -28 0 -71 7 -95 16 -24 8 -89 20 -145 25 -55 5 -121 16 -145 26 -40 15
-117 17 -765 20 -652 4 -723 3 -737 -12 -15 -15 -17 -232 -17 -2473 0 -1351 4
-2463 8 -2470 7 -9 53 -12 198 -10 l189 3 3 2277 2 2277 21 11 c14 8 181 10
562 8 503 -3 544 -4 576 -21 18 -10 67 -22 110 -27 42 -4 90 -15 106 -24 17
-9 41 -16 55 -16 14 0 42 -9 63 -20 20 -11 47 -20 59 -20 13 0 46 -12 73 -25
28 -14 61 -25 75 -25 14 0 39 -9 55 -20 17 -11 40 -20 51 -20 12 0 33 -9 47
-20 14 -11 32 -20 40 -20 8 0 26 -9 40 -20 14 -11 29 -20 35 -20 5 0 25 -12
44 -27 20 -16 44 -34 54 -40 11 -7 50 -33 88 -58 38 -26 81 -52 95 -60 14 -7
43 -28 64 -47 22 -18 60 -51 85 -73 126 -109 369 -371 401 -433 9 -16 32 -54
51 -84 19 -29 40 -60 45 -69 6 -9 36 -54 68 -101 31 -47 57 -92 57 -100 0 -9
9 -27 20 -41 11 -14 20 -34 20 -44 0 -10 9 -35 20 -56 11 -20 20 -47 20 -59 0
-13 11 -45 25 -73 13 -27 25 -60 25 -73 0 -12 9 -40 20 -62 11 -22 20 -51 20
-65 0 -15 9 -47 19 -73 11 -26 22 -77 25 -114 4 -36 14 -84 24 -105 14 -33 17
-77 16 -353 0 -274 -2 -320 -17 -353 -9 -21 -19 -69 -23 -105 -3 -37 -14 -88
-25 -114 -10 -26 -19 -58 -19 -73 0 -14 -9 -43 -20 -65 -11 -22 -20 -50 -20
-62 0 -13 -12 -45 -25 -73 -14 -27 -25 -61 -25 -75 0 -14 -9 -38 -20 -55 -11
-16 -20 -41 -20 -53 0 -13 -9 -35 -20 -49 -11 -14 -20 -32 -20 -41 0 -8 -26
-53 -57 -99 -32 -47 -62 -93 -68 -102 -53 -87 -69 -111 -76 -111 -4 0 -12 -15
-18 -33 -6 -19 -28 -51 -48 -73 -20 -21 -57 -64 -82 -94 -55 -66 -208 -219
-274 -275 -27 -22 -58 -49 -71 -60 -54 -45 -196 -142 -226 -153 -8 -3 -36 -22
-62 -41 -63 -48 -133 -91 -148 -91 -6 0 -23 -9 -37 -20 -14 -11 -34 -20 -45
-20 -10 0 -36 -9 -58 -20 -22 -11 -50 -20 -62 -20 -13 0 -37 -9 -55 -19 -17
-11 -49 -23 -70 -27 -21 -3 -48 -12 -60 -20 -12 -7 -41 -17 -65 -20 -24 -4
-61 -15 -83 -25 -22 -10 -61 -19 -87 -19 -26 0 -71 -10 -100 -22 l-53 -23
-1199 -3 c-898 -2 -1202 0 -1212 9 -12 10 -14 476 -14 3170 0 1963 4 3160 9
3164 18 10 2343 6 2396 -5 28 -5 68 -14 90 -20 22 -5 76 -10 120 -10 58 -1 91
-6 120 -20 22 -11 63 -20 90 -20 28 -1 68 -8 90 -16 22 -9 63 -20 90 -25 28
-6 68 -19 91 -30 22 -10 62 -19 90 -19 27 -1 67 -9 89 -20 22 -11 49 -19 60
-20 11 0 36 -8 55 -19 19 -10 51 -22 70 -26 19 -4 42 -13 50 -20 8 -7 26 -16
40 -20 14 -4 36 -16 49 -26 13 -11 30 -19 38 -19 8 0 31 -9 51 -19 20 -11 48
-24 62 -30 14 -6 32 -15 40 -20 32 -20 120 -61 130 -61 6 0 23 -8 38 -18 15
-11 56 -38 92 -62 91 -60 152 -103 168 -117 7 -7 19 -13 26 -13 7 0 23 -11 35
-24 12 -13 34 -26 49 -29 15 -4 56 -33 92 -66 74 -69 66 -62 186 -162 122
-103 267 -248 354 -355 40 -49 79 -96 86 -104 8 -8 31 -33 51 -56 45 -48 93
-116 93 -130 0 -6 9 -19 20 -29 11 -10 22 -27 26 -39 4 -11 17 -34 31 -51 13
-16 27 -34 31 -40 73 -94 202 -319 202 -353 0 -8 9 -25 20 -39 11 -14 20 -36
20 -48 0 -12 7 -28 15 -35 8 -7 20 -30 25 -51 6 -22 15 -39 20 -39 4 0 14 -17
20 -37 7 -21 18 -45 25 -53 7 -8 16 -31 20 -50 4 -19 16 -49 26 -66 10 -17 19
-41 19 -53 0 -12 7 -36 16 -54 10 -17 20 -66 25 -109 4 -42 14 -87 23 -100 8
-13 19 -48 25 -78 5 -30 16 -73 25 -95 8 -22 15 -62 16 -88 0 -26 7 -64 16
-85 10 -22 19 -86 24 -163 5 -69 14 -146 22 -170 18 -62 18 -556 0 -618 -8
-24 -17 -101 -22 -170 -5 -77 -14 -141 -24 -163 -9 -21 -16 -59 -16 -85 -1
-26 -8 -66 -16 -88 -9 -22 -21 -68 -28 -102 -7 -34 -18 -68 -24 -76 -6 -7 -15
-49 -20 -93 -5 -44 -17 -94 -26 -111 -9 -18 -16 -42 -16 -54 0 -12 -9 -36 -19
-53 -10 -17 -22 -47 -26 -66 -4 -19 -13 -42 -20 -50 -7 -8 -16 -26 -20 -40 -4
-14 -16 -36 -26 -49 -11 -13 -19 -31 -19 -41 0 -10 -9 -29 -20 -43 -11 -14
-20 -34 -20 -45 0 -10 -9 -31 -20 -45 -11 -14 -20 -31 -20 -39 0 -12 -43 -101
-80 -168 -32 -56 -66 -107 -102 -151 -21 -26 -38 -50 -38 -54 0 -4 -11 -20
-25 -37 -14 -16 -25 -35 -25 -42 0 -6 -9 -19 -20 -29 -11 -9 -20 -23 -20 -32
0 -13 -76 -116 -104 -140 -6 -5 -55 -63 -109 -127 -117 -141 -244 -270 -370
-375 -50 -42 -97 -81 -104 -87 -20 -19 -117 -104 -142 -126 -13 -11 -32 -20
-41 -20 -10 0 -23 -6 -29 -14 -6 -7 -39 -31 -74 -52 -34 -21 -66 -42 -72 -46
-120 -93 -137 -103 -375 -215 -30 -15 -62 -30 -70 -35 -8 -4 -24 -12 -35 -17
-58 -25 -71 -32 -85 -39 -54 -30 -101 -52 -112 -52 -7 0 -35 -11 -63 -25 -27
-13 -60 -25 -73 -25 -12 0 -39 -9 -59 -20 -23 -12 -57 -20 -88 -20 -27 0 -68
-9 -91 -19 -23 -10 -61 -22 -85 -26 -24 -4 -56 -14 -71 -21 -14 -8 -63 -18
-107 -23 -45 -5 -88 -15 -97 -21 -9 -8 -62 -16 -132 -20 -64 -4 -130 -14 -147
-21 -24 -11 -141 -14 -570 -17 -340 -1 -546 1 -555 7 -12 9 -16 52 -20 253
l-5 243 -190 0 -190 0 -8 -125 c-9 -150 0 -751 12 -763 13 -13 1367 -2 1426
12 28 6 120 16 205 20 85 5 169 14 185 21 17 7 80 16 142 20 73 5 120 12 135
22 13 9 54 21 92 26 37 6 73 16 80 21 7 6 37 15 66 21 30 6 61 17 70 25 9 8
27 15 41 15 13 0 47 11 74 25 28 13 59 25 70 25 11 0 34 9 50 20 17 11 38 20
48 20 10 0 34 8 55 19 20 10 56 21 80 24 24 3 51 12 60 20 19 17 212 117 226
117 4 0 30 18 56 40 26 22 56 40 66 40 11 0 30 9 44 20 14 11 34 20 46 20 12
0 31 9 44 20 13 11 26 20 30 20 4 0 47 32 95 70 48 39 93 70 101 70 7 0 17 6
21 13 4 7 31 27 58 44 28 17 57 37 65 45 9 7 45 38 80 68 36 30 100 88 143
130 43 41 86 79 95 84 26 13 172 159 172 172 0 6 26 37 58 70 59 59 123 130
194 215 21 24 70 94 110 154 41 61 88 126 107 145 18 19 39 49 46 66 8 17 21
36 29 44 9 7 16 21 16 32 0 16 11 41 49 114 3 6 19 30 35 54 15 24 53 93 84
154 31 61 64 122 74 135 10 13 18 38 18 55 0 17 9 51 20 75 11 24 20 51 20 60
0 9 8 28 18 41 9 14 22 43 29 65 17 62 44 136 63 180 10 22 21 59 24 83 4 24
13 53 20 65 8 12 17 46 21 76 4 30 16 72 26 95 13 29 19 65 19 121 0 44 7 105
15 135 8 30 20 132 25 225 5 94 15 230 22 303 9 104 9 160 0 255 -7 67 -15
190 -18 272 -4 86 -14 187 -25 237 -11 48 -19 123 -19 165 0 54 -6 90 -19 119
-10 23 -22 65 -26 95 -4 30 -13 64 -21 76 -7 12 -16 41 -20 65 -3 24 -14 61
-24 83 -19 44 -46 118 -63 180 -7 22 -20 51 -29 65 -10 13 -18 32 -18 41 0 9
-9 36 -20 60 -11 24 -20 58 -20 74 0 17 -8 42 -17 55 -10 14 -43 75 -75 137
-32 62 -70 132 -85 155 -41 64 -83 149 -83 168 0 10 -7 23 -16 30 -8 8 -21 27
-29 44 -7 17 -27 46 -45 65 -29 31 -88 115 -159 226 -14 22 -39 55 -56 74 -81
93 -135 151 -189 207 -32 34 -64 70 -70 82 -16 30 -147 163 -168 171 -10 4
-58 45 -106 91 -150 145 -259 233 -361 290 -36 20 -151 111 -151 119 0 4 -12
12 -27 19 -16 7 -41 19 -58 28 -67 37 -105 54 -118 54 -8 0 -36 17 -63 39 -27
21 -60 42 -74 46 -14 4 -36 16 -49 26 -13 11 -31 19 -41 19 -10 0 -28 8 -41
18 -13 10 -35 23 -49 30 -14 7 -36 19 -50 27 -14 8 -38 15 -53 15 -15 0 -45 9
-67 20 -22 11 -45 20 -51 20 -6 0 -30 8 -53 19 -78 35 -151 63 -186 71 -19 4
-48 15 -65 24 -16 9 -41 16 -55 16 -14 0 -41 8 -60 19 -19 10 -58 21 -87 25
-29 4 -71 15 -95 26 -30 14 -65 20 -117 20 -40 0 -110 9 -155 19 -45 10 -141
22 -216 25 -74 4 -153 12 -175 18 -51 15 -2732 23 -2755 8z"/>
</g>
</svg>
